<?xml version="1.0" encoding="utf-8"?>
<!-- Generator: Adobe Illustrator 21.0.0, SVG Export Plug-In . SVG Version: 6.00 Build 0)  -->
<svg version="1.1" id="图层_1" xmlns="http://www.w3.org/2000/svg" xmlns:xlink="http://www.w3.org/1999/xlink" x="0px" y="0px"
	 viewBox="0 0 200 200" style="enable-background:new 0 0 200 200;" xml:space="preserve">
<style type="text/css">
	.st0{fill:#85A6B9;}
</style>
<path class="st0" d="M189.7,130.6l-0.5-3.4l-0.6-3.4l-0.5-1.7l-0.5-1.8l-0.6-1.8l-0.6-2l-0.7-1.8l-0.8-1.9l-1.4-3.1l-1.3-2.7
	l-1.3-2.4l-1.1-2.3l-1.3-2.1l-0.9-1.9l-2-2.8l-2.5-3.8l-0.6-0.9l-0.2-0.4v-0.3l0.4-1.3l0.6-1.1l0.5-2.2l0.3-1.2v-1.2l0.1-1v-1
	l-0.1-1.1l-0.2-0.9l-0.4-1.8l-0.5-1.8l-0.4-1.6l-0.7-1.6l-0.8-1.3l-0.6-1.2l-0.7-1.2l-1-1.7l-0.4-0.6l-0.1-0.5l-0.5-3.4l-0.3-2.2
	l-0.4-2.8l-0.5-2.9l-0.9-3.3l-0.5-1.8l-0.4-1.6l-0.5-1.8l-0.6-1.9l-0.6-1.8l-0.8-1.9l-1.6-3.7l-0.9-1.8l-1.1-2l-1.1-1.7l-1.1-2
	l-1.5-1.8l-1.3-1.8l-1.5-1.8l-1.6-1.6l-1.6-1.6l-1.9-1.6l-1-0.6l-0.9-0.8l-2-1.4l-2.3-1.6l-2.4-1.4l-2.5-1.3l-2.7-1.2l-2.3-1l-2.6-1
	l-2.9-0.8l-2.6-0.7L120,6.6l-2.7-0.7l-2.9-0.3l-2.8-0.3l-2.8-0.4h-2.9h-2.8h-2.7l-2.8,0.2l-2.7,0.4l-2.7,0.4l-2.7,0.5l-2.7,0.5
	l-2.5,0.6l-2.5,0.8L79.5,9l-2.4,0.8L74.7,11l-2.2,0.9l-2,1.1l-2.1,1.3l-1.9,1.3l-1.9,1.5l-1.5,1.4l-2.4,2.3l-2,2.1L56.8,25L55,27.1
	l-1.7,2.1l-1.5,2.1l-1.4,2.1l-0.7,0.9l-0.6,1.1l-1.3,2l-1,2L46,41.3l-0.8,2l-0.8,1.8l-0.7,1.7l-0.6,1.8l-0.6,1.7l-0.8,3l-0.6,2.9
	l-0.3,2.4l-0.3,2.1v1.6v1.3v1.2l-0.6,0.6l-0.5,0.8L38.9,67l-0.4,0.8l-0.4,1.8l-0.5,1.6l-0.2,1.5l-0.1,1.1V75l-1.1,1.6l-0.8,1.6
	l-0.6,1.6l-0.4,1.4L34,82.6l-0.3,1.3V85v1.2v1l0.2,0.8l0.3,1.4l0.3,1.1L33.9,91l-1.8,1.3l-2.3,2.1l-1.4,1.3L27,96.9l-1,1l-0.8,0.9
	l-1.7,1.8l-1.6,1.8l-1.3,1.6l-1.5,2.3l-1.5,2.1l-1.4,2.3l-1.2,2.1l-1,2.3l-1.1,2.1l-0.8,2.1l-0.8,2.1l-0.6,2.1l-0.6,2.1l-0.5,1.9
	l-0.3,2L9,131.4l-0.3,1.8l-0.2,3.5v3.3v1.5l0.2,1.4l0.4,2.5l0.2,1.1l0.3,1.1l0.4,1l0.3,0.7l0.5,1.4l0.4,0.3l0.3,0.6l0.3,0.1H12h0.1
	l1.4-0.1l1.4-0.4l1.2-0.5l1.3-0.8l1.2-0.8l1-1l1.1-1l1-1.1l0.9-1.2l0.8-1.1l0.8-0.9l0.5-1l0.9-1.7l0.3-0.7l0.2-0.4l0.1-0.5l0.2-0.4
	l0.2-0.1l0.3-0.2h0.2l0.1,0.2h0.2l0.2,0.1l0.5,2.3l0.6,1.9l0.8,2l0.8,1.8l0.7,1.8l1,1.6l0.7,1.6l0.8,1.5l1,1.3l0.7,1.3l1.9,2.3
	l1.7,2.1l1.6,1.6l1.6,1.4l1.4,1.1l2.1,1.8l0.8,0.4l0.3,0.4v0.2l-0.2,0.2h-0.1l-0.4,0.1l-1.5,0.1l-1.4,0.2l-1.2,0.2l-1.3,0.3
	l-1.1,0.3l-1.1,0.3l-1,0.5l-0.8,0.5l-1,0.3l-0.6,0.5l-0.7,0.4l-0.7,0.6l-0.9,1.1l-0.3,0.5l-0.4,0.4l-0.6,1.2l-0.3,1l-0.4,1l-0.1,0.8
	v1.1v0.5l-0.2,0.8v0.8l-0.2,0.8v0.7l0.2,0.8l0.2,0.7l0.4,1.3l0.3,0.6l0.4,0.6l0.4,0.6l0.5,0.5l0.6,0.6l0.5,0.5l1.4,1l1.4,0.9
	l1.6,0.8l1.7,0.7l1.8,0.8l2,0.5l2,0.7l2.2,0.5l2.2,0.3l2.3,0.3l2.3,0.3l4.6,0.5l4.8,0.1h4.4h2.1h2l2.1-0.1l1.8-0.2l1.7-0.1l1.6-0.1
	l2.6-0.5l1.8-0.5l1.8-0.5l3.2-1.4l1.5-0.6l1.4-0.7l2.3-1.3l2.1-1l1.5-1l1.1-1l1.8,0.2l1.4,0.2l2.7,0.2h1.3h1.1l0.8,0.2l0.8,0.3
	l1.3,0.5l1.5,0.5l2.8,0.9l2.9,1l2.8,0.8l2.8,0.6l2.9,0.7l3,0.4l2.8,0.3l2.8,0.4l2.7,0.3l2.8,0.2h2.7h2.6h2.5l2.5-0.3l2.5-0.1
	l2.4-0.4l2.2-0.5l2.2-0.5l2.1-0.5l0.9-0.3l1-0.3l1.8-0.7l1.6-0.8l1.5-0.8l1.4-0.8l1.3-1l0.5-0.5l0.6-0.7l0.8-0.9l0.8-1.2l0.3-0.6
	l0.1-0.5l0.4-0.6l0.1-0.7v-0.7l0.2-0.6l-0.2-1l-0.1-0.8l-0.4-1l-0.3-0.8l-0.5-1l-0.6-0.9l-0.6-0.8l-0.8-0.6l-1.7-1.5l-1.9-1.4
	l-1.9-1.1l-2-1.2l-4.6-2.3l-1.1-0.7l-0.3-0.3l-0.2-0.2l2.2-2.2l1-1.1l0.8-1l1.5-2.2l1.5-2.3l1.2-2l1.2-2l1.6-3.9l1.2-3.2l0.8-2.3
	l0.5-0.8l0.3-0.6l0.5-0.4h0.2l0.1,0.1l1.2,2.3l1.1,2.3l0.7,1.3l0.8,1.1l0.8,1.4l1,1.3l0.8,0.9l0.5,0.5l0.5,0.5l0.4,0.3l0.4,0.3
	l0.9,0.5l0.5,0.2h0.3h0.4l0.5-0.2l0.6-0.3l0.7-0.3l0.6-0.5l0.5-0.6l0.6-0.7l0.5-0.6l0.5-0.9l0.4-0.7l0.5-1l0.3-0.9l0.7-2.1l0.4-2.4
	l0.3-2.6l0.2-1.5v-1.3v-1.4v-1.7L189.7,130.6z"/>
</svg>
