<svg xmlns="http://www.w3.org/2000/svg" width="597" height="306" viewBox="0 0 597 306">
    <g fill="#FFF" fill-rule="evenodd">
        <path fill-rule="nonzero" d="M89.607 21.176c-.934 1.824-1.999 3.58-3.185 5.251a36.23 36.23 0 0 1-5.22 4.94 18.295 18.295 0 0 1-4.77 2.304 28.612 28.612 0 0 1-6.247 1.71 13.556 13.556 0 0 1-3.078-.188c1.05-2.165 1.733-4.508 2.975-6.616a46.126 46.126 0 0 1 4.716-6.07 46.306 46.306 0 0 1 5.689-5.388 23.183 23.183 0 0 1 5.113-3.124 17.215 17.215 0 0 1 5.494-.969 28.432 28.432 0 0 1 4.72.173c-.698 1.22-2.714 1.88-3.525 3.149a47.806 47.806 0 0 0-2.682 4.828z"/>
        <path fill-rule="nonzero" d="M77.532 40.183c1.882-.406 3.731-.784 5.654-1.004 1.923-.22 3.527.009 5.278-.29a11.457 11.457 0 0 0 3.787-1.32 22.793 22.793 0 0 0 2.73-2.157 25.852 25.852 0 0 1-.762 4.383 15.235 15.235 0 0 1-2.484 4.987 31.25 31.25 0 0 1-6.295 5.37 54.584 54.584 0 0 1-8.455 4.418 56.983 56.983 0 0 1-7.166 2.474c-1.569.513-3.182.879-4.82 1.091a34.76 34.76 0 0 0-4.458-.046 4.619 4.619 0 0 0-2.626 1.745 17.635 17.635 0 0 0-1.994 4.916c-.392 1.437-.314 2.983-.762 4.383a46.186 46.186 0 0 1-1.94 4.682c1.438-1.055 2.808-2.329 4.389-3.308a39.288 39.288 0 0 1 5.632-3.087c2.874-1.236 5.82-2.012 8.694-3.248a19.404 19.404 0 0 0 4.727-2.217c.891-1.023 1.816-2.071 2.757-2.998.176 1.535.205 3.083.088 4.623a22.583 22.583 0 0 1-2.419 6.652 30.531 30.531 0 0 1-5.26 7.016 44.477 44.477 0 0 1-8.252 5.918 48.766 48.766 0 0 1-7.263 3.398c-1.609.676-3.288 1.163-4.954 1.802-.628.235-1.392.336-1.81.865a7.618 7.618 0 0 0-1.268 2.882c-.339 1.503.045 3.02-.489 4.653a2.61 2.61 0 0 1-1.335 1.519 1.65 1.65 0 0 1-1.522-.16 1.92 1.92 0 0 1-1.07-1.289 7.948 7.948 0 0 1 .046-2.74c.191-1.819.144-3.663.273-5.46.2-.747.281-1.522.24-2.296a10.347 10.347 0 0 0-1.49-2.177 33.35 33.35 0 0 1-2.71-4.326 46.306 46.306 0 0 1-3.145-7.96 45.886 45.886 0 0 1-1.595-9.214c-.23-2.003-.18-4.027.15-6.016a31.31 31.31 0 0 1 2.575-6.424 45.946 45.946 0 0 1 2.663-3.821c-.014 1.017.06 2.034.224 3.039a13.616 13.616 0 0 0 1.327 3.155c.502.957 1.157 1.9 1.72 2.865.922 1.544 1.863 3.211 2.859 4.643.995 1.431 1.85 2.758 2.8 4.063.367.522.574 1.418 1.2 1.484.627.066.559-.726.782-1.124a23.783 23.783 0 0 0 1.899-3.721c.562-1.392.919-2.858 1.06-4.352a11.996 11.996 0 0 0-.82-3.102c-.465-1.888-1.27-3.692-1.613-5.597A70.66 70.66 0 0 1 51.16 37.17a44.807 44.807 0 0 1 .426-8.068 28.192 28.192 0 0 1 2.035-7.596 19.044 19.044 0 0 1 3.471-4.34c.948-.986 2.096-1.86 3.088-2.69a19.314 19.314 0 0 0-.04 2.679c.04 1.526.245 3.044.61 4.527.558 2.14 1.643 4.153 2.355 6.279a74.198 74.198 0 0 1 1.717 8.051 32 32 0 0 1 .358 4.049c.067 1.665.01 3.348.017 5.007 2.074-1.078 4.08-2.375 6.373-3.25a38.988 38.988 0 0 1 5.962-1.635z"/>
        <path fill-rule="nonzero" d="M36.249 95.779a32.54 32.54 0 0 1 4.02 3.747 25.163 25.163 0 0 1 2.827 3.891c.875 1.322 1.735 2.885 2.595 3.998.459-1.175.8-2.311 1.238-3.364a23.993 23.993 0 0 1 1.949-4.375 40.248 40.248 0 0 1 3.887-4.601c1.594-1.705 3.201-3.23 4.888-4.912 1.686-1.681 3.112-2.352 4.546-3.775a10.977 10.977 0 0 0 2.214-3.162c.357-1.056.584-2.152.674-3.264a24.683 24.683 0 0 1 2.904 10.14 44.447 44.447 0 0 1-8.762 20.876c-2.783 3.2-7.886 6.323-9.883 10.01a6.178 6.178 0 0 0-.66 2.602c.092 2.003.332 3.996.718 5.963.413 1.28.687 2.602.816 3.941a2.49 2.49 0 0 1-.987 1.783 2.16 2.16 0 0 1-1.984.44c-.555-.202-.79-.968-.95-1.558a28.522 28.522 0 0 1-1.014-5.04l-.318-4.547a3 3 0 0 0-.34-1.42 7.978 7.978 0 0 0-1.794-2.009c-1.748-1.35-3.623-2.362-5.255-3.781a41.808 41.808 0 0 1-6.425-5.894 53.984 53.984 0 0 1-5.253-8.051 35.51 35.51 0 0 1-3.192-6.511 21.624 21.624 0 0 1-1.025-7.354 46.906 46.906 0 0 1 1.63-6.368 21.624 21.624 0 0 0 2.352 3.985 36.86 36.86 0 0 0 4.725 3.938c1.94 1.518 3.97 3.03 5.859 4.672z"/>
        <path fill-rule="nonzero" d="M26.565 125.041a21.983 21.983 0 0 0 3.564 3.39c1.945 1.29 4.236 2.165 6.223 3.338a59.982 59.982 0 0 1 6.47 4.148c1.451 1 2.776 2.173 3.946 3.491a43.637 43.637 0 0 1 3.145 4.794 26.542 26.542 0 0 1 .007-3.226 13.286 13.286 0 0 1 1.161-3.587 29.991 29.991 0 0 1 3.244-5.329c1.36-1.757 2.978-3.366 4.502-4.955a42.467 42.467 0 0 0 4.361-4.487 16.075 16.075 0 0 0 2.196-4.534c.28-1.192.408-2.415.382-3.639a14.996 14.996 0 0 1 4.276 7.235 36.89 36.89 0 0 1-2.197 16.023 53.204 53.204 0 0 1-7.153 13.542 30.171 30.171 0 0 0-4.27 5.915 5.188 5.188 0 0 0-.028 2.56c.559 2.14 1.845 3.963 2.38 6.04.167.622.18 1.275.042 1.904a2.34 2.34 0 0 1-.942 1.5 1.68 1.68 0 0 1-1.76-.185 8.517 8.517 0 0 1-1.54-2.846c-.679-1.58-1.252-3.298-1.92-4.967-.136-.436-.14-.98-.532-1.262a9.807 9.807 0 0 0-2.202-1.136 50.985 50.985 0 0 1-14.71-9.809 49.006 49.006 0 0 1-9.71-13.777 18.565 18.565 0 0 1-1.292-5.503c.021-2.433.196-4.862.523-7.273a24.293 24.293 0 0 0 1.834 2.635z"/>
        <path fill-rule="nonzero" d="M34.622 172.63a19.164 19.164 0 0 1-1.917-5.344 40.698 40.698 0 0 1-.816-5.777 35.63 35.63 0 0 0 3.036 2.88 13.076 13.076 0 0 0 3.453 1.396c2.383.864 4.864 1.5 7.238 2.422 2.374.923 4.644 1.738 6.88 2.76a22.673 22.673 0 0 1 4.245 2.342 30.441 30.441 0 0 1 3.64 3.856 27.832 27.832 0 0 1 .107-3.353c.33-2.152.808-4.278 1.432-6.363a50.985 50.985 0 0 1 2.124-5.736c1.187-2.515 2.701-4.977 3.998-7.414a26.602 26.602 0 0 0 2.36-4.363c.345-1.587.54-3.203.583-4.827a35.36 35.36 0 0 1 3.854 4.042 15.955 15.955 0 0 1 2.193 5.327c.533 2.95.7 5.954.496 8.945a58.753 58.753 0 0 1-1.53 9.657 55.873 55.873 0 0 1-2.498 8.106 47.986 47.986 0 0 1-3.433 6.532c-.685 1.258-1.782 2.238-2.358 3.574a3.359 3.359 0 0 0-.143 2.437 21.504 21.504 0 0 0 2.7 3.464 7.438 7.438 0 0 1 1.057 1.959c.1.536.012 1.09-.249 1.57a2.64 2.64 0 0 1-1.276.77c-.383.12-.914.401-1.27.162a13.646 13.646 0 0 1-2.01-2.838 56.203 56.203 0 0 0-3.127-4.99 18.565 18.565 0 0 0-3.378-3.024c-1.58-.9-3.22-1.687-4.91-2.357-1.713-.879-3.638-1.184-5.16-2.123a42.767 42.767 0 0 1-4.793-3.097 55.214 55.214 0 0 1-5.375-4.404 36.86 36.86 0 0 1-5.153-6.191z"/>
        <path fill-rule="nonzero" d="M88.013 225.706a5.368 5.368 0 0 1 1.421 1.687c.278.47.35 1.034.198 1.56-.05.476-.625.778-1.014 1.038-.39.261-.844.575-1.19.418a13.256 13.256 0 0 1-2.564-2.29 38.299 38.299 0 0 0-4.138-4.234 14.036 14.036 0 0 0-4.242-2.105 41.807 41.807 0 0 0-5.234-1.274c-1.8-.37-3.65-.564-5.378-1.047a44.777 44.777 0 0 1-5.39-1.803 40.728 40.728 0 0 1-6.236-3.22 32.99 32.99 0 0 1-6.319-5.006 20.994 20.994 0 0 1-3.026-4.78 57.403 57.403 0 0 1-1.93-5.451c1.143.603 2.215 1.59 3.544 2.152 1.196.35 2.425.58 3.667.687l7.606.8c2.458.29 4.9.708 7.317 1.25 1.588.283 3.138.75 4.618 1.39 1.559.841 3.03 1.834 4.393 2.965a22.283 22.283 0 0 1-.619-3.291 45.407 45.407 0 0 1 .084-6.535c.145-1.999.434-3.984.865-5.94.65-2.737 1.532-5.389 2.3-8.112a27.352 27.352 0 0 0 1.433-4.735 25.522 25.522 0 0 0-.483-4.876 34.07 34.07 0 0 1 4.613 3.169 14.996 14.996 0 0 1 3.21 4.74 37.819 37.819 0 0 1 2.384 8.604c.488 3.235.699 6.506.63 9.777a48.616 48.616 0 0 1-.708 8.46 60.732 60.732 0 0 1-1.954 7.122 29.991 29.991 0 0 0-1.557 3.907 3.15 3.15 0 0 0 .349 2.42 20.634 20.634 0 0 0 3.35 2.553z"/>
        <path fill-rule="nonzero" d="M81.58 231.846a32.54 32.54 0 0 1 5.495.095c1.596.182 3.172.516 4.705 1 1.534.397 3.22.982 4.603 1.234-.445-1.18-.952-2.253-1.331-3.328a23.993 23.993 0 0 1-1.48-4.556c-.213-1.999-.277-4.011-.19-6.02.045-2.334.218-4.543.346-6.92.129-2.378.74-3.831.853-5.848a10.977 10.977 0 0 0-.47-3.831 13.646 13.646 0 0 0-1.683-2.877 24.683 24.683 0 0 1 8.942 5.592 44.447 44.447 0 0 1 7.457 21.377c.074 4.24-1.629 9.976-.645 14.053a6.178 6.178 0 0 0 1.25 2.375 40.668 40.668 0 0 0 4.523 3.95 18.714 18.714 0 0 1 3.244 2.383 2.49 2.49 0 0 1 .46 1.986 2.16 2.16 0 0 1-1.18 1.654c-.548.221-1.234-.191-1.75-.521a28.522 28.522 0 0 1-4.125-3.067l-3.28-3.167a3 3 0 0 0-1.201-.828 7.978 7.978 0 0 0-2.678-.292c-2.203.165-4.273.668-6.436.706-2.9.277-5.823.25-8.718-.081A53.984 53.984 0 0 1 79 244.447a35.51 35.51 0 0 1-6.728-2.704 21.624 21.624 0 0 1-5.683-4.779 46.906 46.906 0 0 1-3.05-5.822 21.624 21.624 0 0 0 4.415 1.387c2.051.093 4.108.015 6.146-.235 2.458-.17 4.978-.405 7.48-.448z"/>
        <path fill-rule="nonzero" d="M99.521 262.972a21.983 21.983 0 0 0 4.821-.974c2.173-.854 4.203-2.229 6.304-3.184a59.982 59.982 0 0 1 7.109-2.92 21.864 21.864 0 0 1 5.122-1.23 43.637 43.637 0 0 1 5.731.173 26.542 26.542 0 0 1-2.638-1.856 13.286 13.286 0 0 1-2.273-3.009 29.991 29.991 0 0 1-2.504-5.713c-.658-2.123-1.05-4.37-1.477-6.53a42.467 42.467 0 0 0-1.174-6.146 16.075 16.075 0 0 0-2.454-4.4 14.546 14.546 0 0 0-2.762-2.4 14.996 14.996 0 0 1 8.379.647 36.89 36.89 0 0 1 11.865 10.99 53.204 53.204 0 0 1 6.99 13.627 30.171 30.171 0 0 0 2.396 6.89 5.188 5.188 0 0 0 2.081 1.492c2.074.77 4.305.762 6.314 1.514.605.221 1.148.584 1.583 1.059a2.34 2.34 0 0 1 .688 1.631 1.68 1.68 0 0 1-1.16 1.336 8.517 8.517 0 0 1-3.216-.37c-1.682-.35-3.419-.867-5.17-1.276-.435-.14-.881-.449-1.338-.29a9.807 9.807 0 0 0-2.194 1.153 50.985 50.985 0 0 1-16.473 6.424 49.006 49.006 0 0 1-16.854.052 18.565 18.565 0 0 1-5.25-2.099 57.793 57.793 0 0 1-5.657-4.6c1.07.074 2.142.077 3.211.01zM167.567 281.802a18.463 18.463 0 0 0 3.942-1.237c1.74-.904 3.314-2.23 4.986-3.213a50.376 50.376 0 0 1 5.68-3.063 18.362 18.362 0 0 1 4.171-1.477 36.649 36.649 0 0 1 4.802-.358 22.291 22.291 0 0 1-2.366-1.32 11.158 11.158 0 0 1-2.163-2.313 25.188 25.188 0 0 1-2.593-4.552c-.736-1.715-1.26-3.558-1.807-5.324a35.666 35.666 0 0 0-1.52-5.031 13.5 13.5 0 0 0-2.436-3.459 12.216 12.216 0 0 0-2.517-1.762 12.594 12.594 0 0 1 7.055-.195 30.981 30.981 0 0 1 10.875 8.137 44.684 44.684 0 0 1 7.035 10.769 25.34 25.34 0 0 0 2.605 5.544c.525.505 1.168.87 1.87 1.063 1.8.46 3.662.259 5.406.711.525.131 1.01.387 1.415.745.401.323.659.791.718 1.302a1.41 1.41 0 0 1-.852 1.218c-.9.164-1.822.155-2.718-.028-1.436-.144-2.932-.423-4.43-.611-.375-.078-.776-.297-1.143-.124a8.236 8.236 0 0 0-1.731 1.155 42.82 42.82 0 0 1-13.195 6.812 41.157 41.157 0 0 1-14.073 1.523c-1.58-.195-3.12-.63-4.569-1.292a48.537 48.537 0 0 1-5.13-3.346c.9-.032 1.796-.124 2.683-.274z"/>
        <path fill-rule="nonzero" d="M143.572 282.456a16.667 16.667 0 0 1-4.825-1.05 35.395 35.395 0 0 1-4.637-2.06 30.987 30.987 0 0 0 3.523-.912 11.372 11.372 0 0 0 2.622-1.903c1.735-1.36 3.347-2.897 5.122-4.222 1.775-1.326 3.422-2.625 5.207-3.803a19.719 19.719 0 0 1 3.683-2.051 26.474 26.474 0 0 1 4.522-.908 24.205 24.205 0 0 1-2.424-1.624 40.95 40.95 0 0 1-4.033-3.989 44.341 44.341 0 0 1-3.252-4.21c-1.307-2.035-2.426-4.286-3.625-6.365a23.136 23.136 0 0 0-2.13-3.752 22.666 22.666 0 0 0-3.292-2.654 30.752 30.752 0 0 1 4.757-.98 13.876 13.876 0 0 1 4.94.838 31.639 31.639 0 0 1 6.826 3.756 51.097 51.097 0 0 1 6.417 5.579 48.593 48.593 0 0 1 4.828 5.579 41.733 41.733 0 0 1 3.235 5.542c.612 1.085.83 2.345 1.549 3.386a2.921 2.921 0 0 0 1.731 1.228 18.702 18.702 0 0 0 3.8-.395 6.469 6.469 0 0 1 1.931.124c.442.173.81.494 1.044.907.118.425.11.875-.02 1.296-.088.339-.125.859-.466 1.012-.995.187-2.01.245-3.02.174a48.88 48.88 0 0 0-5.12.007c-1.303.21-2.575.578-3.788 1.097a33.908 33.908 0 0 0-4.001 2.535c-1.438.859-2.55 2.138-3.944 2.827a37.195 37.195 0 0 1-4.493 2.108 48.019 48.019 0 0 1-5.726 1.935c-2.272.568-4.6.886-6.94.948zM202.18 291.689a17.326 17.326 0 0 0 3.376-1.905c1.42-1.169 2.607-2.694 3.95-3.921a47.274 47.274 0 0 1 4.617-3.92 17.231 17.231 0 0 1 3.54-2.17 34.392 34.392 0 0 1 4.338-1.266c-.824-.2-1.636-.45-2.43-.749a10.471 10.471 0 0 1-2.436-1.701 23.637 23.637 0 0 1-3.268-3.673c-1.01-1.43-1.851-3.02-2.698-4.535a33.47 33.47 0 0 0-2.377-4.321 12.67 12.67 0 0 0-2.91-2.7 11.464 11.464 0 0 0-2.655-1.126 11.818 11.818 0 0 1 6.438-1.556 29.073 29.073 0 0 1 11.57 5.348 41.932 41.932 0 0 1 8.558 8.512 23.779 23.779 0 0 0 3.474 4.581 4.09 4.09 0 0 0 1.923.611c1.742.072 3.413-.477 5.101-.402a3.167 3.167 0 0 1 1.445.407c.43.219.759.598.913 1.056.077.496-.134.994-.545 1.283a6.713 6.713 0 0 1-2.5.506c-1.346.147-2.774.183-4.186.303-.36.001-.77-.122-1.073.109a7.73 7.73 0 0 0-1.364 1.398 40.183 40.183 0 0 1-10.783 8.827 38.623 38.623 0 0 1-12.62 4.144c-1.489.13-2.988.03-4.446-.295a45.548 45.548 0 0 1-5.361-2.07c.82-.205 1.624-.464 2.409-.775z"/>
        <path fill-rule="nonzero" d="M237.331 293.587a27.896 27.896 0 0 1-3.845-1.1c.904-.313 1.789-.68 2.65-1.097a8.963 8.963 0 0 0 1.837-1.773c1.205-1.252 2.295-2.628 3.535-3.857 1.24-1.23 2.382-2.424 3.646-3.54a15.54 15.54 0 0 1 2.65-2.004c1.106-.5 2.254-.904 3.43-1.205a19.077 19.077 0 0 1-2.07-1.001 32.274 32.274 0 0 1-3.585-2.67 34.947 34.947 0 0 1-3-2.93c-1.244-1.444-2.364-3.079-3.528-4.57-.606-.961-1.3-1.863-2.074-2.695a17.864 17.864 0 0 0-2.86-1.71 24.237 24.237 0 0 1 3.605-1.287 10.936 10.936 0 0 1 3.947.112 24.935 24.935 0 0 1 5.74 2.184 40.27 40.27 0 0 1 5.62 3.65 38.297 38.297 0 0 1 4.38 3.824 32.89 32.89 0 0 1 3.132 3.97c.597.78.905 1.74 1.581 2.473.381.434.912.708 1.486.77a14.74 14.74 0 0 0 2.922-.726 5.098 5.098 0 0 1 1.521-.115c.364.087.687.296.914.593.138.319.182.67.126 1.014-.03.274-.003.684-.252.841a9.353 9.353 0 0 1-2.338.467c-1.34.12-2.675.308-3.996.567-.993.307-1.946.734-2.835 1.272a26.724 26.724 0 0 0-2.845 2.417c-1.028.828-1.756 1.949-2.768 2.64a29.314 29.314 0 0 1-3.275 2.137 37.845 37.845 0 0 1-4.257 2.138 25.264 25.264 0 0 1-5.313 1.501c-1.3.097-2.609 0-3.88-.29z"/>
        <path d="M267.801 278.32c17.868-1.087 29.743.074 35.627 3.482 8.826 5.112 13.858 7.743 14.56 10.186.468 1.63-.27 2.634-2.216 3.016-2.72-2.01-7.055-5.318-13.006-9.921-8.926-6.906-35.678-3.13-37.07-4.003-.928-.583-.226-1.503 2.105-2.76z"/>
        <g>
            <path fill-rule="nonzero" d="M507.393 21.176c.934 1.824 1.999 3.58 3.185 5.251a36.23 36.23 0 0 0 5.22 4.94c1.47.996 3.077 1.771 4.77 2.304a28.612 28.612 0 0 0 6.247 1.71c1.03.055 2.062-.009 3.078-.188-1.05-2.165-1.733-4.508-2.975-6.616a46.126 46.126 0 0 0-4.716-6.07 46.306 46.306 0 0 0-5.689-5.388 23.183 23.183 0 0 0-5.113-3.124 17.215 17.215 0 0 0-5.494-.969 28.432 28.432 0 0 0-4.72.173c.698 1.22 2.714 1.88 3.525 3.149a47.806 47.806 0 0 1 2.682 4.828z"/>
            <path fill-rule="nonzero" d="M519.468 40.183c-1.882-.406-3.731-.784-5.654-1.004-1.923-.22-3.527.009-5.278-.29a11.457 11.457 0 0 1-3.787-1.32 22.793 22.793 0 0 1-2.73-2.157c.128 1.48.383 2.947.762 4.383.515 1.801 1.357 3.491 2.484 4.987a31.25 31.25 0 0 0 6.295 5.37 54.584 54.584 0 0 0 8.455 4.418 56.983 56.983 0 0 0 7.166 2.474c1.569.513 3.182.879 4.82 1.091a34.76 34.76 0 0 1 4.458-.046 4.619 4.619 0 0 1 2.626 1.745 17.635 17.635 0 0 1 1.994 4.916c.392 1.437.314 2.983.762 4.383a46.186 46.186 0 0 0 1.94 4.682c-1.438-1.055-2.808-2.329-4.389-3.308a39.288 39.288 0 0 0-5.632-3.087c-2.874-1.236-5.82-2.012-8.694-3.248a19.404 19.404 0 0 1-4.727-2.217c-.891-1.023-1.816-2.071-2.757-2.998a24.383 24.383 0 0 0-.088 4.623 22.583 22.583 0 0 0 2.419 6.652 30.531 30.531 0 0 0 5.26 7.016 44.477 44.477 0 0 0 8.252 5.918 48.766 48.766 0 0 0 7.263 3.398c1.609.676 3.288 1.163 4.954 1.802.628.235 1.392.336 1.81.865a7.618 7.618 0 0 1 1.268 2.882c.339 1.503-.045 3.02.489 4.653a2.61 2.61 0 0 0 1.335 1.519c.503.199 1.071.14 1.522-.16a1.92 1.92 0 0 0 1.07-1.289 7.948 7.948 0 0 0-.046-2.74c-.191-1.819-.144-3.663-.273-5.46a7.378 7.378 0 0 1-.24-2.296c.4-.786.902-1.518 1.49-2.177a33.35 33.35 0 0 0 2.71-4.326 46.306 46.306 0 0 0 3.145-7.96 45.886 45.886 0 0 0 1.595-9.214c.23-2.003.18-4.027-.15-6.016a31.31 31.31 0 0 0-2.575-6.424 45.946 45.946 0 0 0-2.663-3.821 17.365 17.365 0 0 1-.224 3.039 13.616 13.616 0 0 1-1.327 3.155c-.502.957-1.157 1.9-1.72 2.865-.922 1.544-1.863 3.211-2.859 4.643-.995 1.431-1.85 2.758-2.8 4.063-.367.522-.574 1.418-1.2 1.484-.627.066-.559-.726-.782-1.124a23.783 23.783 0 0 1-1.899-3.721 15.535 15.535 0 0 1-1.06-4.352c.133-1.066.409-2.109.82-3.102.465-1.888 1.27-3.692 1.613-5.597a70.66 70.66 0 0 0 1.149-10.585 44.807 44.807 0 0 0-.426-8.068 28.192 28.192 0 0 0-2.035-7.596 19.044 19.044 0 0 0-3.471-4.34c-.948-.986-2.096-1.86-3.088-2.69.076.89.09 1.786.04 2.679a21.354 21.354 0 0 1-.61 4.527c-.558 2.14-1.643 4.153-2.355 6.279a74.198 74.198 0 0 0-1.717 8.051 32 32 0 0 0-.358 4.049c-.067 1.665-.01 3.348-.017 5.007-2.074-1.078-4.08-2.375-6.373-3.25a38.988 38.988 0 0 0-5.962-1.635z"/>
            <path fill-rule="nonzero" d="M560.751 95.779a32.54 32.54 0 0 0-4.02 3.747 25.163 25.163 0 0 0-2.827 3.891c-.875 1.322-1.735 2.885-2.595 3.998-.459-1.175-.8-2.311-1.238-3.364a23.993 23.993 0 0 0-1.949-4.375 40.248 40.248 0 0 0-3.887-4.601c-1.594-1.705-3.201-3.23-4.888-4.912-1.686-1.681-3.112-2.352-4.546-3.775a10.977 10.977 0 0 1-2.214-3.162 13.646 13.646 0 0 1-.674-3.264 24.683 24.683 0 0 0-2.904 10.14 44.447 44.447 0 0 0 8.762 20.876c2.783 3.2 7.886 6.323 9.883 10.01.408.809.633 1.697.66 2.602a40.668 40.668 0 0 1-.718 5.963 18.714 18.714 0 0 0-.816 3.941c.06.708.419 1.357.987 1.783a2.16 2.16 0 0 0 1.984.44c.555-.202.79-.968.95-1.558a28.522 28.522 0 0 0 1.014-5.04l.318-4.547a3 3 0 0 1 .34-1.42 7.978 7.978 0 0 1 1.794-2.009c1.748-1.35 3.623-2.362 5.255-3.781a41.808 41.808 0 0 0 6.425-5.894 53.984 53.984 0 0 0 5.253-8.051 35.51 35.51 0 0 0 3.192-6.511 21.624 21.624 0 0 0 1.025-7.354 46.906 46.906 0 0 0-1.63-6.368 21.624 21.624 0 0 1-2.352 3.985 36.86 36.86 0 0 1-4.725 3.938c-1.94 1.518-3.97 3.03-5.859 4.672z"/>
            <path fill-rule="nonzero" d="M570.435 125.041a21.983 21.983 0 0 1-3.564 3.39c-1.945 1.29-4.236 2.165-6.223 3.338a59.982 59.982 0 0 0-6.47 4.148 21.864 21.864 0 0 0-3.946 3.491 43.637 43.637 0 0 0-3.145 4.794c.063-1.075.06-2.152-.007-3.226a13.286 13.286 0 0 0-1.161-3.587 29.991 29.991 0 0 0-3.244-5.329c-1.36-1.757-2.978-3.366-4.502-4.955a42.467 42.467 0 0 1-4.361-4.487 16.075 16.075 0 0 1-2.196-4.534 14.546 14.546 0 0 1-.382-3.639 14.996 14.996 0 0 0-4.276 7.235 36.89 36.89 0 0 0 2.197 16.023 53.204 53.204 0 0 0 7.153 13.542 30.171 30.171 0 0 1 4.27 5.915c.223.837.233 1.717.028 2.56-.559 2.14-1.845 3.963-2.38 6.04a4.019 4.019 0 0 0-.042 1.904 2.34 2.34 0 0 0 .942 1.5 1.68 1.68 0 0 0 1.76-.185 8.517 8.517 0 0 0 1.54-2.846c.679-1.58 1.252-3.298 1.92-4.967.136-.436.14-.98.532-1.262a9.807 9.807 0 0 1 2.202-1.136 50.985 50.985 0 0 0 14.71-9.809 49.006 49.006 0 0 0 9.71-13.777 18.564 18.564 0 0 0 1.292-5.503 57.793 57.793 0 0 0-.523-7.273 24.293 24.293 0 0 1-1.834 2.635z"/>
            <path fill-rule="nonzero" d="M562.378 172.63a19.164 19.164 0 0 0 1.917-5.344c.41-1.904.683-3.835.816-5.777a35.63 35.63 0 0 1-3.036 2.88 13.076 13.076 0 0 1-3.453 1.396c-2.383.864-4.864 1.5-7.238 2.422-2.374.923-4.644 1.738-6.88 2.76a22.673 22.673 0 0 0-4.245 2.342 30.441 30.441 0 0 0-3.64 3.856 27.832 27.832 0 0 0-.107-3.353 47.086 47.086 0 0 0-1.432-6.363 50.985 50.985 0 0 0-2.124-5.736c-1.187-2.515-2.701-4.977-3.998-7.414a26.602 26.602 0 0 1-2.36-4.363 26.062 26.062 0 0 1-.583-4.827 35.36 35.36 0 0 0-3.854 4.042 15.955 15.955 0 0 0-2.193 5.327 36.38 36.38 0 0 0-.496 8.945c.24 3.256.752 6.486 1.53 9.657a55.874 55.874 0 0 0 2.498 8.106 47.986 47.986 0 0 0 3.433 6.532c.685 1.258 1.782 2.238 2.358 3.574.351.765.402 1.635.143 2.437a21.504 21.504 0 0 1-2.7 3.464 7.438 7.438 0 0 0-1.057 1.959 2.37 2.37 0 0 0 .249 1.57c.342.373.785.64 1.276.77.383.12.914.401 1.27.162a13.646 13.646 0 0 0 2.01-2.838 56.203 56.203 0 0 1 3.127-4.99 18.565 18.565 0 0 1 3.378-3.024c1.58-.9 3.22-1.687 4.91-2.357 1.713-.879 3.638-1.184 5.16-2.123a42.767 42.767 0 0 0 4.793-3.097 55.214 55.214 0 0 0 5.375-4.404 36.86 36.86 0 0 0 5.153-6.191z"/>
            <path fill-rule="nonzero" d="M508.987 225.706a5.368 5.368 0 0 0-1.421 1.687 1.98 1.98 0 0 0-.198 1.56c.05.476.625.778 1.014 1.038.39.261.844.575 1.19.418a13.256 13.256 0 0 0 2.564-2.29 38.299 38.299 0 0 1 4.138-4.234 14.036 14.036 0 0 1 4.242-2.105 41.807 41.807 0 0 1 5.234-1.274c1.8-.37 3.65-.564 5.378-1.047a44.777 44.777 0 0 0 5.39-1.803 40.728 40.728 0 0 0 6.236-3.22 32.99 32.99 0 0 0 6.319-5.006 20.994 20.994 0 0 0 3.026-4.78 57.403 57.403 0 0 0 1.93-5.451c-1.143.603-2.215 1.59-3.544 2.152-1.196.35-2.425.58-3.667.687l-7.606.8c-2.458.29-4.9.708-7.317 1.25a20.724 20.724 0 0 0-4.618 1.39 26.782 26.782 0 0 0-4.393 2.965c.289-1.08.495-2.18.619-3.291.13-2.178.101-4.362-.084-6.535a41.688 41.688 0 0 0-.865-5.94c-.65-2.737-1.532-5.389-2.3-8.112a27.352 27.352 0 0 1-1.433-4.735c.004-1.637.166-3.27.483-4.876a34.07 34.07 0 0 0-4.613 3.169 14.996 14.996 0 0 0-3.21 4.74 37.819 37.819 0 0 0-2.384 8.604 57.463 57.463 0 0 0-.63 9.777 48.616 48.616 0 0 0 .708 8.46 60.732 60.732 0 0 0 1.954 7.122c.61 1.264 1.13 2.57 1.557 3.907a3.15 3.15 0 0 1-.349 2.42 20.634 20.634 0 0 1-3.35 2.553z"/>
            <path fill-rule="nonzero" d="M515.42 231.846a32.54 32.54 0 0 0-5.495.095 25.163 25.163 0 0 0-4.705 1c-1.534.397-3.22.982-4.603 1.234.445-1.18.952-2.253 1.331-3.328a23.993 23.993 0 0 0 1.48-4.556c.213-1.999.277-4.011.19-6.02-.045-2.334-.218-4.543-.346-6.92-.129-2.378-.74-3.831-.853-5.848-.07-1.295.088-2.592.47-3.831a13.646 13.646 0 0 1 1.683-2.877 24.683 24.683 0 0 0-8.942 5.592 44.447 44.447 0 0 0-7.457 21.377c-.074 4.24 1.629 9.976.645 14.053a6.178 6.178 0 0 1-1.25 2.375 40.668 40.668 0 0 1-4.523 3.95 18.714 18.714 0 0 0-3.244 2.383 2.49 2.49 0 0 0-.46 1.986 2.16 2.16 0 0 0 1.18 1.654c.548.221 1.234-.191 1.75-.521a28.522 28.522 0 0 0 4.125-3.067l3.28-3.167a3 3 0 0 1 1.201-.828 7.978 7.978 0 0 1 2.678-.292c2.203.165 4.273.668 6.436.706 2.9.277 5.823.25 8.718-.081a53.984 53.984 0 0 0 9.291-2.468 35.51 35.51 0 0 0 6.728-2.704 21.624 21.624 0 0 0 5.683-4.779 46.906 46.906 0 0 0 3.05-5.822 21.624 21.624 0 0 1-4.415 1.387 36.86 36.86 0 0 1-6.146-.235c-2.458-.17-4.978-.405-7.48-.448z"/>
            <path fill-rule="nonzero" d="M497.479 262.972a21.983 21.983 0 0 1-4.821-.974c-2.173-.854-4.203-2.229-6.304-3.184a59.982 59.982 0 0 0-7.109-2.92 21.864 21.864 0 0 0-5.122-1.23 43.637 43.637 0 0 0-5.731.173 26.542 26.542 0 0 0 2.638-1.856 13.286 13.286 0 0 0 2.273-3.009 29.991 29.991 0 0 0 2.504-5.713c.658-2.123 1.05-4.37 1.477-6.53.24-2.075.632-4.13 1.174-6.146a16.075 16.075 0 0 1 2.454-4.4 14.546 14.546 0 0 1 2.762-2.4 14.996 14.996 0 0 0-8.379.647 36.89 36.89 0 0 0-11.865 10.99 53.204 53.204 0 0 0-6.99 13.627 30.171 30.171 0 0 1-2.396 6.89 5.188 5.188 0 0 1-2.081 1.492c-2.074.77-4.305.762-6.314 1.514a4.019 4.019 0 0 0-1.583 1.059 2.34 2.34 0 0 0-.688 1.631 1.68 1.68 0 0 0 1.16 1.336 8.517 8.517 0 0 0 3.216-.37c1.682-.35 3.419-.867 5.17-1.276.435-.14.881-.449 1.338-.29.777.29 1.514.678 2.194 1.153a50.985 50.985 0 0 0 16.473 6.424 49.006 49.006 0 0 0 16.854.052 18.565 18.565 0 0 0 5.25-2.099 57.793 57.793 0 0 0 5.657-4.6 24.293 24.293 0 0 1-3.211.01zM429.433 281.802a18.463 18.463 0 0 1-3.942-1.237c-1.74-.904-3.314-2.23-4.986-3.213a50.376 50.376 0 0 0-5.68-3.063 18.362 18.362 0 0 0-4.171-1.477 36.649 36.649 0 0 0-4.802-.358 22.292 22.292 0 0 0 2.366-1.32 11.158 11.158 0 0 0 2.163-2.313 25.188 25.188 0 0 0 2.593-4.552c.736-1.715 1.26-3.558 1.807-5.324.382-1.712.89-3.394 1.52-5.031a13.5 13.5 0 0 1 2.436-3.459 12.216 12.216 0 0 1 2.517-1.762 12.594 12.594 0 0 0-7.055-.195 30.981 30.981 0 0 0-10.875 8.137 44.684 44.684 0 0 0-7.035 10.769 25.34 25.34 0 0 1-2.605 5.545 4.358 4.358 0 0 1-1.87 1.062c-1.8.46-3.662.259-5.406.711a3.375 3.375 0 0 0-1.415.745c-.401.323-.659.791-.718 1.302.03.535.36 1.007.852 1.218.9.164 1.822.155 2.718-.028 1.436-.144 2.932-.423 4.43-.611.375-.078.776-.297 1.143-.124.624.31 1.205.699 1.731 1.155a42.82 42.82 0 0 0 13.195 6.812 41.157 41.157 0 0 0 14.073 1.523c1.58-.195 3.12-.63 4.569-1.292a48.537 48.537 0 0 0 5.13-3.346c-.9-.032-1.796-.124-2.683-.274z"/>
            <path fill-rule="nonzero" d="M453.428 282.456a16.667 16.667 0 0 0 4.825-1.05 35.395 35.395 0 0 0 4.637-2.06 30.987 30.987 0 0 1-3.523-.912 11.372 11.372 0 0 1-2.622-1.903c-1.735-1.36-3.347-2.897-5.122-4.222-1.775-1.326-3.422-2.625-5.207-3.803a19.719 19.719 0 0 0-3.683-2.051 26.474 26.474 0 0 0-4.522-.908c.84-.492 1.65-1.035 2.424-1.624a40.95 40.95 0 0 0 4.033-3.989 44.341 44.341 0 0 0 3.252-4.21c1.307-2.035 2.426-4.286 3.625-6.365a23.136 23.136 0 0 1 2.13-3.752 22.666 22.666 0 0 1 3.292-2.654 30.752 30.752 0 0 0-4.757-.98 13.876 13.876 0 0 0-4.94.838 31.639 31.639 0 0 0-6.826 3.756 51.097 51.097 0 0 0-6.417 5.579 48.593 48.593 0 0 0-4.828 5.579 41.733 41.733 0 0 0-3.235 5.542c-.612 1.085-.83 2.345-1.549 3.386a2.921 2.921 0 0 1-1.731 1.228 18.702 18.702 0 0 1-3.8-.395 6.469 6.469 0 0 0-1.931.124 2.06 2.06 0 0 0-1.044.907c-.118.425-.11.875.02 1.296.088.339.125.859.466 1.012.995.187 2.01.245 3.02.174a48.88 48.88 0 0 1 5.12.007c1.303.21 2.575.578 3.788 1.097a33.908 33.908 0 0 1 4.001 2.535c1.438.859 2.55 2.138 3.944 2.827 1.45.802 2.95 1.506 4.493 2.108a48.019 48.019 0 0 0 5.726 1.935c2.272.568 4.6.886 6.94.948zM394.82 291.689a17.326 17.326 0 0 1-3.376-1.905c-1.42-1.169-2.607-2.694-3.95-3.921a47.274 47.274 0 0 0-4.617-3.92 17.231 17.231 0 0 0-3.54-2.17 34.391 34.391 0 0 0-4.338-1.266c.824-.2 1.636-.45 2.43-.749a10.471 10.471 0 0 0 2.436-1.701 23.637 23.637 0 0 0 3.268-3.673c1.01-1.43 1.851-3.02 2.698-4.535a33.47 33.47 0 0 1 2.377-4.321 12.67 12.67 0 0 1 2.91-2.7 11.464 11.464 0 0 1 2.655-1.126 11.818 11.818 0 0 0-6.438-1.556 29.073 29.073 0 0 0-11.57 5.348 41.932 41.932 0 0 0-8.558 8.512 23.779 23.779 0 0 1-3.474 4.581 4.09 4.09 0 0 1-1.923.611c-1.742.072-3.413-.477-5.101-.402a3.167 3.167 0 0 0-1.445.407c-.43.219-.759.598-.913 1.056-.077.496.134.994.545 1.283a6.713 6.713 0 0 0 2.5.506c1.346.147 2.774.183 4.186.303.36.001.77-.122 1.073.109.512.407.97.876 1.364 1.398a40.183 40.183 0 0 0 10.783 8.827 38.623 38.623 0 0 0 12.62 4.144c1.489.13 2.988.03 4.446-.295a45.548 45.548 0 0 0 5.361-2.07 19.146 19.146 0 0 1-2.409-.775z"/>
            <path fill-rule="nonzero" d="M359.669 293.587a27.896 27.896 0 0 0 3.845-1.1 24.421 24.421 0 0 1-2.65-1.097 8.963 8.963 0 0 1-1.837-1.773c-1.205-1.252-2.295-2.628-3.535-3.857-1.24-1.23-2.382-2.424-3.646-3.54a15.541 15.541 0 0 0-2.65-2.004 20.865 20.865 0 0 0-3.43-1.205c.71-.291 1.401-.626 2.07-1.001a32.274 32.274 0 0 0 3.585-2.67 34.947 34.947 0 0 0 3-2.93c1.244-1.444 2.364-3.079 3.528-4.57.606-.961 1.3-1.863 2.074-2.695a17.864 17.864 0 0 1 2.86-1.71 24.237 24.237 0 0 0-3.605-1.287 10.936 10.936 0 0 0-3.947.112 24.935 24.935 0 0 0-5.74 2.184 40.27 40.27 0 0 0-5.62 3.65 38.297 38.297 0 0 0-4.38 3.824 32.891 32.891 0 0 0-3.132 3.97c-.597.78-.905 1.74-1.581 2.473a2.302 2.302 0 0 1-1.486.77 14.74 14.74 0 0 1-2.922-.726 5.098 5.098 0 0 0-1.521-.115 1.624 1.624 0 0 0-.914.593c-.138.319-.182.67-.126 1.014.03.274.003.684.252.841a9.353 9.353 0 0 0 2.338.467c1.34.12 2.675.308 3.996.567.993.307 1.946.734 2.835 1.272a26.724 26.724 0 0 1 2.845 2.417c1.028.828 1.756 1.949 2.768 2.64a29.314 29.314 0 0 0 3.275 2.137 37.845 37.845 0 0 0 4.257 2.138 25.264 25.264 0 0 0 5.313 1.501c1.3.097 2.609 0 3.88-.29z"/>
            <path d="M329.199 278.32c-17.868-1.087-29.743.074-35.627 3.482-8.826 5.112-13.858 7.743-14.56 10.186-.468 1.63.27 2.634 2.216 3.016 2.72-2.01 7.055-5.318 13.006-9.921 8.926-6.906 35.678-3.13 37.07-4.003.928-.583.226-1.503-2.105-2.76z"/>
        </g>
        <g>
            <path d="M318.238 11h20.722v4.793c-1.801 1.626-3.306 3.387-4.514 5.28-1.464 2.3-2.62 4.863-3.468 7.686-.674 2.196-1.127 4.793-1.36 7.79h-7.075c.557-4.17 1.434-7.668 2.631-10.491 1.197-2.824 3.09-5.844 5.682-9.063h-12.618V11zm24.748 0h10.387l4.008 15.546L361.372 11h10.352v25.55h-6.448V17.064l-5.002 19.484h-5.838l-4.985-19.484v19.484h-6.465V11zM375 11h8.696l4.532 7.86L392.62 11h8.609l-7.947 12.374 8.696 13.175h-8.87l-5.037-8.208-5.054 8.208h-8.819l8.819-13.315L375 11zm-40.015 57.024h-8.993l-1.237 4.218h-8.07l9.604-25.55h8.609l9.603 25.55h-8.261l-1.255-4.218zm-1.655-5.524l-2.824-9.185-2.806 9.185h5.63zm13.75-15.807h7.372l9.62 14.134V46.693h7.442v25.549h-7.442l-9.567-14.03v14.03h-7.425v-25.55zm29.732 0h7.372l9.62 14.134V46.693h7.442v25.549h-7.441l-9.568-14.03v14.03h-7.425v-25.55zm46.307 0h7.877v15.232c0 1.51-.235 2.936-.706 4.278a9.242 9.242 0 0 1-2.213 3.52c-1.005 1.006-2.06 1.711-3.163 2.118-1.534.57-3.376.854-5.525.854-1.243 0-2.6-.087-4.07-.261-1.47-.175-2.698-.52-3.686-1.037-.987-.517-1.89-1.252-2.71-2.205-.819-.953-1.38-1.934-1.681-2.945-.488-1.627-.732-3.068-.732-4.322V46.693h7.877V62.29c0 1.394.386 2.483 1.159 3.267.773.785 1.845 1.177 3.216 1.177 1.359 0 2.425-.387 3.198-1.16.772-.772 1.159-1.867 1.159-3.284V46.693zm27.605 21.331h-8.992l-1.238 4.218h-8.069l9.603-25.55h8.61l9.602 25.55h-8.26l-1.256-4.218zM449.07 62.5l-2.824-9.185-2.805 9.185h5.629zm13.698-15.807h7.895V65.95h12.322v6.292h-20.217v-25.55zM319.231 82.385h13.124c2.858 0 4.998.68 6.422 2.04 1.423 1.359 2.135 3.293 2.135 5.803 0 2.579-.776 4.595-2.327 6.047s-3.918 2.179-7.102 2.179h-4.322v9.48h-7.93V82.385zm7.93 10.893h1.934c1.523 0 2.591-.265 3.207-.793.616-.53.924-1.206.924-2.03 0-.802-.267-1.482-.802-2.04-.534-.558-1.54-.836-3.015-.836h-2.248v5.699zm17.916-10.893h7.895v8.94h8.627v-8.94h7.93v25.55h-7.93V97.6h-8.627v10.334h-7.895V82.385zm28.704 12.792c0-4.17 1.162-7.418 3.485-9.742 2.324-2.324 5.56-3.486 9.708-3.486 4.252 0 7.529 1.142 9.83 3.425 2.3 2.283 3.45 5.481 3.45 9.594 0 2.986-.503 5.435-1.508 7.346-1.005 1.911-2.457 3.398-4.357 4.462-1.9 1.063-4.266 1.594-7.101 1.594-2.882 0-5.267-.459-7.155-1.377-1.888-.918-3.418-2.37-4.592-4.357-1.173-1.986-1.76-4.473-1.76-7.459zm7.895.035c0 2.58.479 4.433 1.438 5.56.958 1.127 2.262 1.69 3.912 1.69 1.696 0 3.01-.552 3.939-1.656.93-1.103 1.394-3.084 1.394-5.943 0-2.405-.485-4.162-1.455-5.271-.97-1.11-2.286-1.665-3.948-1.665-1.591 0-2.87.564-3.834 1.69-.964 1.128-1.446 2.992-1.446 5.595zm20.112-12.827h23.998v6.309h-8.052v19.24h-7.895v-19.24h-8.051v-6.309zm25.357 12.792c0-4.17 1.162-7.418 3.486-9.742 2.324-2.324 5.56-3.486 9.707-3.486 4.253 0 7.53 1.142 9.83 3.425s3.45 5.481 3.45 9.594c0 2.986-.502 5.435-1.507 7.346-1.005 1.911-2.457 3.398-4.357 4.462-1.9 1.063-4.267 1.594-7.102 1.594-2.881 0-5.266-.459-7.154-1.377-1.888-.918-3.419-2.37-4.592-4.357-1.174-1.986-1.76-4.473-1.76-7.459zm7.895.035c0 2.58.48 4.433 1.438 5.56.959 1.127 2.263 1.69 3.913 1.69 1.696 0 3.009-.552 3.938-1.656.93-1.103 1.395-3.084 1.395-5.943 0-2.405-.485-4.162-1.456-5.271-.97-1.11-2.286-1.665-3.947-1.665-1.592 0-2.87.564-3.834 1.69-.965 1.128-1.447 2.992-1.447 5.595zM334.986 139.41h-8.993l-1.237 4.218h-8.07l9.604-25.55h8.609l9.603 25.55h-8.261l-1.255-4.218zm-1.655-5.524l-2.824-9.185-2.806 9.185h5.63zm11.345-15.807h7.494l2.701 14.273 3.94-14.273h7.476l3.956 14.273 2.701-14.273h7.46l-5.63 25.549h-7.738l-4.479-16.086-4.461 16.086h-7.738l-5.682-25.55zm54.044 21.331h-8.993l-1.237 4.218h-8.07l9.604-25.55h8.61l9.602 25.55h-8.26l-1.256-4.218zm-1.655-5.524l-2.824-9.185-2.806 9.185h5.63zm13.803 9.742v-25.55h13.158c2.44 0 4.304.21 5.594.628 1.29.418 2.33 1.194 3.12 2.327.79 1.132 1.185 2.512 1.185 4.139 0 1.417-.302 2.64-.906 3.668a7.086 7.086 0 0 1-2.493 2.501c-.673.407-1.597.744-2.77 1.011.94.314 1.626.628 2.056.941.29.21.711.657 1.263 1.342.552.686.921 1.214 1.107 1.586l3.817 7.407h-8.923l-4.218-7.808c-.534-1.01-1.01-1.667-1.429-1.97a3.313 3.313 0 0 0-1.935-.592h-.697v10.37h-7.93zm7.93-15.197h3.328c.36 0 1.057-.116 2.091-.349.523-.104.95-.372 1.281-.801.332-.43.497-.924.497-1.482 0-.825-.261-1.458-.784-1.9-.523-.441-1.505-.662-2.945-.662h-3.469v5.194zm19.832-10.352h11.73c2.312 0 4.18.313 5.603.94 1.423.628 2.6 1.529 3.529 2.702.93 1.174 1.603 2.539 2.021 4.096.419 1.557.628 3.206.628 4.95 0 2.73-.311 4.847-.933 6.352-.621 1.504-1.484 2.765-2.588 3.782-1.103 1.016-2.289 1.693-3.555 2.03-1.731.465-3.3.697-4.706.697H438.63v-25.55zm7.895 5.786v13.96h1.935c1.65 0 2.823-.184 3.52-.55.697-.365 1.243-1.005 1.638-1.917.396-.912.593-2.39.593-4.435 0-2.707-.441-4.56-1.324-5.56-.884-.999-2.347-1.498-4.392-1.498h-1.97zm18.387 11.31l7.511-.47c.163 1.22.494 2.15.994 2.788.813 1.034 1.975 1.551 3.485 1.551 1.127 0 1.996-.264 2.606-.793.61-.528.915-1.141.915-1.838 0-.662-.29-1.255-.872-1.778-.58-.523-1.928-1.016-4.043-1.481-3.462-.779-5.931-1.813-7.407-3.102-1.487-1.29-2.23-2.934-2.23-4.933 0-1.312.38-2.553 1.14-3.72.762-1.168 1.906-2.086 3.434-2.754 1.528-.668 3.622-1.002 6.283-1.002 3.265 0 5.754.607 7.468 1.821 1.714 1.214 2.733 3.146 3.059 5.795l-7.442.436c-.198-1.15-.613-1.987-1.246-2.51-.634-.523-1.508-.784-2.623-.784-.918 0-1.61.194-2.074.584-.465.389-.697.862-.697 1.42 0 .407.191.773.575 1.098.372.337 1.255.65 2.649.941 3.45.744 5.922 1.496 7.415 2.257 1.493.761 2.58 1.705 3.26 2.832.68 1.127 1.02 2.388 1.02 3.782a8.1 8.1 0 0 1-1.36 4.531c-.907 1.383-2.173 2.431-3.8 3.146-1.626.714-3.677 1.072-6.152 1.072-4.345 0-7.354-.837-9.027-2.51-1.674-1.673-2.62-3.8-2.841-6.379zM160.687 11h43.497v11.435H189.59v34.873h-14.31V22.435h-14.593V11zm50.036 0h14.309v16.205h15.636V11h14.373v46.308h-14.373V38.577h-15.636v18.731h-14.31V11zm53.794 0h38.348v9.887h-24.007v7.36h22.27v9.445h-22.27v9.13h24.702v10.486h-39.043V11zM143.225 68v73.73h-20.373V93.417c-3.297 2.506-6.487 4.533-9.57 6.083-3.082 1.55-6.947 3.033-11.595 4.45V87.434c6.857-2.209 12.181-4.863 15.972-7.962 3.791-3.098 6.758-6.923 8.901-11.472h16.665zm21.264 49.747l21.313-1.335c.461 3.461 1.4 6.099 2.818 7.912 2.308 2.934 5.605 4.401 9.89 4.401 3.198 0 5.663-.75 7.393-2.25 1.731-1.5 2.596-3.239 2.596-5.217 0-1.88-.824-3.56-2.472-5.044-1.648-1.483-5.473-2.885-11.473-4.203-9.824-2.209-16.83-5.143-21.016-8.802-4.22-3.66-6.33-8.324-6.33-13.995 0-3.725 1.08-7.244 3.24-10.557 2.159-3.314 5.406-5.918 9.741-7.814C184.524 68.948 190.467 68 198.016 68c9.264 0 16.327 1.723 21.19 5.168 4.862 3.445 7.755 8.925 8.678 16.442l-21.115 1.236c-.56-3.264-1.74-5.637-3.536-7.12-1.797-1.484-4.277-2.226-7.442-2.226-2.605 0-4.566.552-5.885 1.657-1.319 1.104-1.978 2.447-1.978 4.03 0 1.154.544 2.192 1.632 3.115 1.055.956 3.56 1.846 7.516 2.67 9.792 2.11 16.805 4.245 21.042 6.404 4.236 2.16 7.318 4.838 9.247 8.036 1.928 3.198 2.893 6.775 2.893 10.73 0 4.649-1.286 8.935-3.857 12.858-2.572 3.923-6.165 6.898-10.78 8.926-4.616 2.027-10.435 3.04-17.457 3.04-12.33 0-20.868-2.373-25.615-7.12s-7.434-10.78-8.06-18.099zm71.95-48.51h68.093v17.9h-22.846v54.593h-22.401V87.137h-22.846v-17.9z"/>
        </g>
        <text font-family="PingFangSC-Semibold, PingFang SC" font-size="30" font-weight="500">
            <tspan x="107.05" y="183">7MX年度攝影大獎賽—第1季</tspan>
        </text>
        <text font-family="PingFangSC-Regular, PingFang SC" font-size="18">
            <tspan x="131.668" y="216">一起加入我的2017影像故事，赢万元大奖</tspan>
        </text>
    </g>
</svg>
