<svg xmlns="http://www.w3.org/2000/svg" width="32" height="32" viewBox="0 0 32 32">
    <g fill="none" fill-rule="evenodd">
        <path fill="#1A1A1A" d="M-1203-406h2507v681h-2507z"/>
        <path fill="#FFF" fill-rule="nonzero" d="M31.25 3.929A3.905 3.905 0 0 0 27.347.024H3.926A3.905 3.905 0 0 0 .02 3.93v23.42a3.905 3.905 0 0 0 3.905 3.905h23.42a3.905 3.905 0 0 0 3.905-3.905V3.93zm-5.829 3.893h-3.937v3.9h3.937v3.898h-3.937v11.735h-3.899V15.62h-3.899v-3.899h3.9V6.618c0-1.31 1.443-2.695 2.914-2.695H25.422v3.9z"/>
    </g>
</svg>
