<?xml version="1.0" encoding="utf-8"?>
<!-- Generator: Adobe Illustrator 21.0.0, SVG Export Plug-In . SVG Version: 6.00 Build 0)  -->
<svg version="1.1" id="图层_1" xmlns="http://www.w3.org/2000/svg" xmlns:xlink="http://www.w3.org/1999/xlink" x="0px" y="0px"
	 viewBox="0 0 200 200" style="enable-background:new 0 0 200 200;" xml:space="preserve">
<style type="text/css">
	.st0{fill:#85A6B9;}
</style>
<path class="st0" d="M100,15.9c-46.5,0-84.1,37.6-84.1,84.1s37.7,84.1,84.1,84.1s84.1-37.7,84.1-84.1S146.5,15.9,100,15.9L100,15.9
	L100,15.9z M99.8,154.4c-5.8,0-10.5-4.8-10.5-10.7S94.1,133,99.8,133c5.8,0,10.5,4.8,10.5,10.7C110.3,149.7,105.7,154.4,99.8,154.4
	L99.8,154.4L99.8,154.4z M129.1,87.3c-1.4,2.8-3.2,5.1-5.1,7.2c-2,2-5.6,5.4-10.7,10.1c-1.4,1.3-2.5,2.5-3.4,3.5
	c-0.8,1-1.5,1.9-1.9,2.8c-0.4,0.8-0.8,1.7-1,2.5c-0.3,0.8-0.6,2.3-1,4.4c-0.8,4.5-3.3,6.7-7.5,6.7c-2.2,0-4-0.8-5.5-2.2
	c-1.5-1.5-2.3-3.6-2.3-6.6c0-3.6,0.6-6.7,1.6-9.4c1.1-2.6,2.5-5,4.3-7c1.9-2,4.2-4.4,7.3-7.2c2.7-2.4,4.6-4.2,5.8-5.5
	c1.2-1.3,2.2-2.6,3-4.1s1.3-3.1,1.3-4.9c0-3.5-1.3-6.3-3.7-8.7c-2.5-2.4-5.7-3.5-9.7-3.5c-4.6,0-8,1.2-10.2,3.5
	c-2.2,2.4-4,5.9-5.6,10.5c-1.4,4.9-4.1,7.3-8.1,7.3c-2.4,0-4.3-0.8-5.9-2.5s-2.4-3.5-2.4-5.5c0-4.1,1.3-8.3,3.8-12.5
	s6.3-7.7,11.2-10.5s10.6-4.1,17.2-4.1c6.1,0,11.5,1.2,16.1,3.5s8.3,5.5,10.8,9.4c2.5,4,3.8,8.3,3.8,12.9
	C131.3,81.3,130.5,84.5,129.1,87.3L129.1,87.3L129.1,87.3z"/>
</svg>
