<?xml version="1.0" encoding="utf-8"?>
<!-- Generator: Adobe Illustrator 21.0.0, SVG Export Plug-In . SVG Version: 6.00 Build 0)  -->
<svg version="1.1" id="图层_1" xmlns="http://www.w3.org/2000/svg" xmlns:xlink="http://www.w3.org/1999/xlink" x="0px" y="0px"
	 viewBox="0 0 200.2 200" style="enable-background:new 0 0 200.2 200;" xml:space="preserve">
<style type="text/css">
	.st0{fill:#85A6B9;}
</style>
<path class="st0" d="M24.3,45.6c0,0-6.7,34,43.6,84.2c0.4,0.4,0.7,0.7,1.1,1.1c0.4,0.4,0.7,0.7,1.1,1.1
	c50.3,50.3,84.2,43.6,84.2,43.6c2.1-0.3,6.5-1.5,7.9-3c0,0,7.7-6.4,12.5-14.2c4.7-7.8-4.2-19.6-9.4-24.8
	c-10.4-10.4-20-12.4-24.2-9.5c-1.9,1.3-9.4,9.4-9.4,9.4c-1.5,1.5-4.4,2.7-6.5,2.7c0,0-13.1,0.1-37.6-23.9
	C63.5,87.8,63.7,74.7,63.7,74.7c0-2.1,1.3-5,2.7-6.5c0,0,9.3-9.3,9.4-9.4c3.5-4.4-2.3-15.4-9.5-24.2c-4.6-5.6-8.4-8.9-15.4-10.2
	C41.5,22.5,24.6,35,24.3,45.6z"/>
</svg>
