<svg xmlns="http://www.w3.org/2000/svg" width="32" height="32" viewBox="0 0 32 32">
    <g fill="none" fill-rule="evenodd">
        <path fill="#1A1A1A" d="M-1262-406h2507v681h-2507z"/>
        <rect width="32" height="32" fill="#FFF" rx="4"/>
        <path fill="#1A1A1A" fill-rule="nonzero" d="M18.222 7.21c-1.907.702-3.111 2.511-2.974 4.493l.045.765-.763-.094c-2.775-.357-5.2-1.576-7.26-3.62L6.261 7.74l-.257.748c-.55 1.67-.197 3.433.945 4.618.61.655.473.748-.578.357-.367-.124-.686-.218-.717-.172-.106.11.259 1.528.55 2.091.395.782 1.203 1.545 2.089 1.998l.748.358-.885.014c-.854 0-.885.015-.794.343.304 1.015 1.509 2.092 2.852 2.56l.945.326-.823.499a8.446 8.446 0 0 1-4.087 1.154c-.686.014-1.25.079-1.25.125 0 .156 1.861 1.029 2.943 1.372 3.248 1.014 7.108.575 10.006-1.154 2.06-1.233 4.118-3.682 5.078-6.055.518-1.261 1.036-3.572 1.036-4.68 0-.717.046-.81.9-1.67.504-.498.976-1.045 1.067-1.201.154-.298.137-.298-.64-.031-1.296.467-1.48.405-.84-.298.473-.499 1.037-1.403 1.037-1.67 0-.045-.228.032-.487.173-.274.156-.886.389-1.344.53l-.823.267-.748-.516c-.413-.28-.99-.592-1.295-.686-.778-.211-1.967-.18-2.668.07z"/>
    </g>
</svg>
